<mxfile host="Electron" modified="2024-05-06T13:18:49.934Z" agent="Mozilla/5.0 (Windows NT 10.0; Win64; x64) AppleWebKit/537.36 (KHTML, like Gecko) draw.io/24.1.0 Chrome/120.0.6099.109 Electron/28.1.0 Safari/537.36" etag="6HmuA_pfUFy7hS7mPeTv" version="24.1.0" type="device">
  <diagram name="Page-1" id="2YBvvXClWsGukQMizWep">
    <mxGraphModel dx="989" dy="577" grid="1" gridSize="10" guides="1" tooltips="1" connect="1" arrows="1" fold="1" page="1" pageScale="1" pageWidth="850" pageHeight="1100" math="0" shadow="0">
      <root>
        <mxCell id="0" />
        <mxCell id="1" parent="0" />
        <mxCell id="aM9ryv3xv72pqoxQDRHE-1" value="Player" style="shape=umlLifeline;perimeter=lifelinePerimeter;whiteSpace=wrap;html=1;container=0;dropTarget=0;collapsible=0;recursiveResize=0;outlineConnect=0;portConstraint=eastwest;newEdgeStyle={&quot;edgeStyle&quot;:&quot;elbowEdgeStyle&quot;,&quot;elbow&quot;:&quot;vertical&quot;,&quot;curved&quot;:0,&quot;rounded&quot;:0};" parent="1" vertex="1">
          <mxGeometry x="40" y="40" width="100" height="400" as="geometry" />
        </mxCell>
        <mxCell id="aM9ryv3xv72pqoxQDRHE-2" value="" style="html=1;points=[];perimeter=orthogonalPerimeter;outlineConnect=0;targetShapes=umlLifeline;portConstraint=eastwest;newEdgeStyle={&quot;edgeStyle&quot;:&quot;elbowEdgeStyle&quot;,&quot;elbow&quot;:&quot;vertical&quot;,&quot;curved&quot;:0,&quot;rounded&quot;:0};" parent="aM9ryv3xv72pqoxQDRHE-1" vertex="1">
          <mxGeometry x="45" y="70" width="10" height="310" as="geometry" />
        </mxCell>
        <mxCell id="aM9ryv3xv72pqoxQDRHE-5" value="Game" style="shape=umlLifeline;perimeter=lifelinePerimeter;whiteSpace=wrap;html=1;container=0;dropTarget=0;collapsible=0;recursiveResize=0;outlineConnect=0;portConstraint=eastwest;newEdgeStyle={&quot;edgeStyle&quot;:&quot;elbowEdgeStyle&quot;,&quot;elbow&quot;:&quot;vertical&quot;,&quot;curved&quot;:0,&quot;rounded&quot;:0};" parent="1" vertex="1">
          <mxGeometry x="220" y="40" width="100" height="400" as="geometry" />
        </mxCell>
        <mxCell id="aM9ryv3xv72pqoxQDRHE-6" value="" style="html=1;points=[];perimeter=orthogonalPerimeter;outlineConnect=0;targetShapes=umlLifeline;portConstraint=eastwest;newEdgeStyle={&quot;edgeStyle&quot;:&quot;elbowEdgeStyle&quot;,&quot;elbow&quot;:&quot;vertical&quot;,&quot;curved&quot;:0,&quot;rounded&quot;:0};" parent="aM9ryv3xv72pqoxQDRHE-5" vertex="1">
          <mxGeometry x="45" y="80" width="10" height="300" as="geometry" />
        </mxCell>
        <mxCell id="aM9ryv3xv72pqoxQDRHE-7" value="Start game" style="html=1;verticalAlign=bottom;endArrow=block;edgeStyle=elbowEdgeStyle;elbow=vertical;curved=0;rounded=0;" parent="1" source="aM9ryv3xv72pqoxQDRHE-2" target="aM9ryv3xv72pqoxQDRHE-6" edge="1">
          <mxGeometry relative="1" as="geometry">
            <mxPoint x="195" y="130" as="sourcePoint" />
            <Array as="points">
              <mxPoint x="180" y="120" />
            </Array>
          </mxGeometry>
        </mxCell>
        <mxCell id="aM9ryv3xv72pqoxQDRHE-8" value="return" style="html=1;verticalAlign=bottom;endArrow=open;dashed=1;endSize=8;edgeStyle=elbowEdgeStyle;elbow=vertical;curved=0;rounded=0;" parent="1" edge="1">
          <mxGeometry relative="1" as="geometry">
            <mxPoint x="95" y="299.9999999999999" as="targetPoint" />
            <Array as="points">
              <mxPoint x="190" y="300" />
            </Array>
            <mxPoint x="265" y="299.9999999999999" as="sourcePoint" />
          </mxGeometry>
        </mxCell>
        <mxCell id="OIHLwWiZRU_I2-u-Lxq_-1" value="Map" style="shape=umlLifeline;perimeter=lifelinePerimeter;whiteSpace=wrap;html=1;container=0;dropTarget=0;collapsible=0;recursiveResize=0;outlineConnect=0;portConstraint=eastwest;newEdgeStyle={&quot;edgeStyle&quot;:&quot;elbowEdgeStyle&quot;,&quot;elbow&quot;:&quot;vertical&quot;,&quot;curved&quot;:0,&quot;rounded&quot;:0};" vertex="1" parent="1">
          <mxGeometry x="400" y="40" width="100" height="400" as="geometry" />
        </mxCell>
        <mxCell id="OIHLwWiZRU_I2-u-Lxq_-10" value="" style="html=1;points=[[0,0,0,0,5],[0,1,0,0,-5],[1,0,0,0,5],[1,1,0,0,-5]];perimeter=orthogonalPerimeter;outlineConnect=0;targetShapes=umlLifeline;portConstraint=eastwest;newEdgeStyle={&quot;curved&quot;:0,&quot;rounded&quot;:0};" vertex="1" parent="OIHLwWiZRU_I2-u-Lxq_-1">
          <mxGeometry x="45" y="70" width="10" height="270" as="geometry" />
        </mxCell>
        <mxCell id="OIHLwWiZRU_I2-u-Lxq_-11" value="load map" style="html=1;align=left;spacingLeft=2;endArrow=block;rounded=0;edgeStyle=orthogonalEdgeStyle;curved=0;rounded=0;" edge="1" parent="OIHLwWiZRU_I2-u-Lxq_-1">
          <mxGeometry relative="1" as="geometry">
            <mxPoint x="54.99999999999977" y="109.9955172413793" as="sourcePoint" />
            <Array as="points">
              <mxPoint x="90" y="110.03" />
              <mxPoint x="90" y="140.03" />
            </Array>
            <mxPoint x="54.99999999999977" y="139.9955172413793" as="targetPoint" />
          </mxGeometry>
        </mxCell>
        <mxCell id="OIHLwWiZRU_I2-u-Lxq_-3" value="create map" style="edgeStyle=none;orthogonalLoop=1;jettySize=auto;html=1;rounded=0;" edge="1" parent="1">
          <mxGeometry y="10" width="100" relative="1" as="geometry">
            <mxPoint x="275" y="140.0000000000001" as="sourcePoint" />
            <mxPoint x="444.9999999999998" y="140.0000000000001" as="targetPoint" />
            <Array as="points" />
            <mxPoint as="offset" />
          </mxGeometry>
        </mxCell>
        <mxCell id="OIHLwWiZRU_I2-u-Lxq_-4" value="Enemy" style="shape=umlLifeline;perimeter=lifelinePerimeter;whiteSpace=wrap;html=1;container=0;dropTarget=0;collapsible=0;recursiveResize=0;outlineConnect=0;portConstraint=eastwest;newEdgeStyle={&quot;edgeStyle&quot;:&quot;elbowEdgeStyle&quot;,&quot;elbow&quot;:&quot;vertical&quot;,&quot;curved&quot;:0,&quot;rounded&quot;:0};" vertex="1" parent="1">
          <mxGeometry x="580" y="40" width="110" height="400" as="geometry" />
        </mxCell>
        <mxCell id="OIHLwWiZRU_I2-u-Lxq_-5" value="" style="html=1;points=[];perimeter=orthogonalPerimeter;outlineConnect=0;targetShapes=umlLifeline;portConstraint=eastwest;newEdgeStyle={&quot;edgeStyle&quot;:&quot;elbowEdgeStyle&quot;,&quot;elbow&quot;:&quot;vertical&quot;,&quot;curved&quot;:0,&quot;rounded&quot;:0};" vertex="1" parent="OIHLwWiZRU_I2-u-Lxq_-4">
          <mxGeometry x="50" y="80" width="10" height="250" as="geometry" />
        </mxCell>
        <mxCell id="OIHLwWiZRU_I2-u-Lxq_-13" value="enemy act" style="html=1;align=left;spacingLeft=2;endArrow=block;rounded=0;edgeStyle=orthogonalEdgeStyle;curved=0;rounded=0;" edge="1" parent="OIHLwWiZRU_I2-u-Lxq_-4">
          <mxGeometry relative="1" as="geometry">
            <mxPoint x="59.99999999999977" y="239.9955172413793" as="sourcePoint" />
            <Array as="points">
              <mxPoint x="100" y="240.03" />
              <mxPoint x="100" y="270.03" />
            </Array>
            <mxPoint x="59.99999999999977" y="269.9955172413793" as="targetPoint" />
          </mxGeometry>
        </mxCell>
        <mxCell id="OIHLwWiZRU_I2-u-Lxq_-6" value="Input" style="edgeStyle=none;orthogonalLoop=1;jettySize=auto;html=1;rounded=0;dashed=1;" edge="1" parent="1">
          <mxGeometry y="10" width="100" relative="1" as="geometry">
            <mxPoint x="95" y="250.0000000000001" as="sourcePoint" />
            <mxPoint x="265" y="250.0000000000001" as="targetPoint" />
            <Array as="points" />
            <mxPoint as="offset" />
          </mxGeometry>
        </mxCell>
        <mxCell id="OIHLwWiZRU_I2-u-Lxq_-7" value="create enemies" style="edgeStyle=none;orthogonalLoop=1;jettySize=auto;html=1;rounded=0;" edge="1" parent="1" target="OIHLwWiZRU_I2-u-Lxq_-5">
          <mxGeometry x="-0.0286" y="10" width="100" relative="1" as="geometry">
            <mxPoint x="454.9999999999998" y="200.0000000000001" as="sourcePoint" />
            <mxPoint x="624.9999999999998" y="200.0000000000001" as="targetPoint" />
            <Array as="points" />
            <mxPoint as="offset" />
          </mxGeometry>
        </mxCell>
        <mxCell id="OIHLwWiZRU_I2-u-Lxq_-14" value="enemy collisions check" style="edgeStyle=none;orthogonalLoop=1;jettySize=auto;html=1;rounded=0;" edge="1" parent="1">
          <mxGeometry x="-0.0286" y="15" width="100" relative="1" as="geometry">
            <mxPoint x="454.9999999999998" y="329.9999999999999" as="sourcePoint" />
            <mxPoint x="629.9999999999998" y="329.9999999999999" as="targetPoint" />
            <Array as="points">
              <mxPoint x="590" y="330" />
            </Array>
            <mxPoint as="offset" />
          </mxGeometry>
        </mxCell>
        <mxCell id="OIHLwWiZRU_I2-u-Lxq_-18" style="edgeStyle=elbowEdgeStyle;rounded=0;orthogonalLoop=1;jettySize=auto;html=1;elbow=vertical;curved=0;" edge="1" parent="1">
          <mxGeometry relative="1" as="geometry">
            <mxPoint x="275" y="269.9999999999999" as="sourcePoint" />
            <mxPoint x="444.9999999999998" y="269.9999999999999" as="targetPoint" />
            <Array as="points">
              <mxPoint x="360" y="270" />
            </Array>
          </mxGeometry>
        </mxCell>
        <mxCell id="OIHLwWiZRU_I2-u-Lxq_-21" value="game act" style="edgeLabel;html=1;align=center;verticalAlign=middle;resizable=0;points=[];" vertex="1" connectable="0" parent="OIHLwWiZRU_I2-u-Lxq_-18">
          <mxGeometry x="0.2024" y="-1" relative="1" as="geometry">
            <mxPoint x="-17" y="-11" as="offset" />
          </mxGeometry>
        </mxCell>
        <mxCell id="OIHLwWiZRU_I2-u-Lxq_-22" style="edgeStyle=elbowEdgeStyle;rounded=0;orthogonalLoop=1;jettySize=auto;html=1;elbow=vertical;curved=0;" edge="1" parent="1">
          <mxGeometry relative="1" as="geometry">
            <mxPoint x="265" y="219.9989655172414" as="sourcePoint" />
            <mxPoint x="95" y="219.9989655172414" as="targetPoint" />
            <Array as="points" />
          </mxGeometry>
        </mxCell>
        <mxCell id="OIHLwWiZRU_I2-u-Lxq_-23" value="game act" style="edgeLabel;html=1;align=center;verticalAlign=middle;resizable=0;points=[];" vertex="1" connectable="0" parent="OIHLwWiZRU_I2-u-Lxq_-22">
          <mxGeometry x="0.2024" y="-1" relative="1" as="geometry">
            <mxPoint x="-17" y="-11" as="offset" />
          </mxGeometry>
        </mxCell>
        <mxCell id="OIHLwWiZRU_I2-u-Lxq_-24" style="edgeStyle=elbowEdgeStyle;rounded=0;orthogonalLoop=1;jettySize=auto;html=1;elbow=vertical;curved=0;" edge="1" parent="1">
          <mxGeometry relative="1" as="geometry">
            <mxPoint x="629.9999999999998" y="349.9989655172414" as="sourcePoint" />
            <mxPoint x="454.9999999999998" y="349.9989655172414" as="targetPoint" />
          </mxGeometry>
        </mxCell>
        <mxCell id="OIHLwWiZRU_I2-u-Lxq_-25" value="Result" style="edgeLabel;html=1;align=center;verticalAlign=middle;resizable=0;points=[];" vertex="1" connectable="0" parent="OIHLwWiZRU_I2-u-Lxq_-24">
          <mxGeometry x="0.0918" y="-1" relative="1" as="geometry">
            <mxPoint y="-9" as="offset" />
          </mxGeometry>
        </mxCell>
        <mxCell id="OIHLwWiZRU_I2-u-Lxq_-26" style="edgeStyle=orthogonalEdgeStyle;rounded=0;orthogonalLoop=1;jettySize=auto;html=1;curved=0;" edge="1" parent="1" source="aM9ryv3xv72pqoxQDRHE-6" target="aM9ryv3xv72pqoxQDRHE-2">
          <mxGeometry relative="1" as="geometry">
            <mxPoint x="380" y="390" as="sourcePoint" />
            <mxPoint x="275" y="370.0000000000001" as="targetPoint" />
            <Array as="points">
              <mxPoint x="210" y="370" />
              <mxPoint x="210" y="370" />
            </Array>
          </mxGeometry>
        </mxCell>
        <mxCell id="OIHLwWiZRU_I2-u-Lxq_-27" value="check death" style="edgeLabel;html=1;align=center;verticalAlign=middle;resizable=0;points=[];" vertex="1" connectable="0" parent="OIHLwWiZRU_I2-u-Lxq_-26">
          <mxGeometry x="-0.1862" y="-1" relative="1" as="geometry">
            <mxPoint x="-27" y="-9" as="offset" />
          </mxGeometry>
        </mxCell>
        <mxCell id="OIHLwWiZRU_I2-u-Lxq_-31" style="edgeStyle=elbowEdgeStyle;rounded=0;orthogonalLoop=1;jettySize=auto;html=1;elbow=horizontal;curved=0;" edge="1" parent="1">
          <mxGeometry relative="1" as="geometry">
            <mxPoint x="95" y="390.0013793103449" as="sourcePoint" />
            <mxPoint x="265" y="390.0013793103449" as="targetPoint" />
          </mxGeometry>
        </mxCell>
        <mxCell id="OIHLwWiZRU_I2-u-Lxq_-32" value="death" style="edgeLabel;html=1;align=center;verticalAlign=middle;resizable=0;points=[];" vertex="1" connectable="0" parent="OIHLwWiZRU_I2-u-Lxq_-31">
          <mxGeometry x="-0.1221" relative="1" as="geometry">
            <mxPoint as="offset" />
          </mxGeometry>
        </mxCell>
        <mxCell id="OIHLwWiZRU_I2-u-Lxq_-33" style="edgeStyle=orthogonalEdgeStyle;rounded=0;orthogonalLoop=1;jettySize=auto;html=1;curved=0;exitX=0.048;exitY=0.969;exitDx=0;exitDy=0;exitPerimeter=0;" edge="1" parent="1">
          <mxGeometry relative="1" as="geometry">
            <mxPoint x="265.48" y="420.00000000000006" as="sourcePoint" />
            <mxPoint x="95" y="420.02413793103455" as="targetPoint" />
            <Array as="points">
              <mxPoint x="140" y="419.3" />
              <mxPoint x="140" y="419.3" />
            </Array>
          </mxGeometry>
        </mxCell>
        <mxCell id="OIHLwWiZRU_I2-u-Lxq_-34" value="display game over" style="edgeLabel;html=1;align=center;verticalAlign=middle;resizable=0;points=[];" vertex="1" connectable="0" parent="OIHLwWiZRU_I2-u-Lxq_-33">
          <mxGeometry x="-0.1862" y="-1" relative="1" as="geometry">
            <mxPoint x="-27" y="-9" as="offset" />
          </mxGeometry>
        </mxCell>
      </root>
    </mxGraphModel>
  </diagram>
</mxfile>
